<svg version="1.1" xmlns="http://www.w3.org/2000/svg" xmlns:xlink="http://www.w3.org/1999/xlink" width="81.5" height="88.55748" viewBox="0,0,81.5,88.55748"><g transform="translate(-199.25,-150.45522)"><g data-paper-data="{&quot;isPaintingLayer&quot;:true}" stroke-miterlimit="10" stroke-dasharray="" stroke-dashoffset="0" style="mix-blend-mode: normal"><path d="M246.95,150.95445c0.3,-0.2 0.8,-0.1 0.9,0.3l2.6,10.7c0,0 6.4,4.7 8.3,8c3.2,5.5 3.3,10 3.3,10c0,0 7.1,2.1 8.3,7.8c1.2,5.7 -3.2,16.5 -22,20.2c-18.8,3.7 -33.9,-1.4 -41,-12.8c-7.1,-11.4 4.1,-25 3.5,-24.2l-2.1,-17.9c-0.1,-0.4 0.4,-0.7 0.8,-0.5l12.1,7.9c0,0 4.5,-1.7 9.2,-1.9c2.8,-0.2 5.2,0 7.5,0.4z" fill="#ffab19" fill-rule="evenodd" stroke="#001026" stroke-width="1.2" stroke-linecap="butt" stroke-linejoin="miter"/><path d="M261.876,180.27045c0,0 6.9,1.8 8.1,7.5c0.65105,3.09246 2.06756,46.33813 -1.69456,49.67922c-3.31849,2.94711 -9.20476,-1.35441 -14.68909,0.36309c-1.69971,0.53229 -3.92917,-13.8659 -5.94232,-13.47626c-1.91864,0.39641 0.57166,4.67819 -1.22869,9.7559c-2.39808,6.76354 -8.90116,-2.25437 -10.94101,-2.40016c-4.57267,-0.32683 -9.8288,8.07516 -12.76593,3.56247c-7.17597,-11.02537 -7.81355,-41.75343 -3.9384,-47.88426c6.7,-10.7 18.2,-1.6 26.6,-2.2c7.2,-0.5 8,-6.8 16.5,-4.9z" fill="#afafaf" fill-rule="evenodd" stroke="#000000" stroke-width="1" stroke-linecap="butt" stroke-linejoin="miter"/><path d="M230.25,191.05445c0,-0.4 0.4,-0.7 0.8,-0.6c1.9,0.7 7.3,2.3 13.3,2.7c5.4,0.3 8.6,0 10.1,-0.3c0.5,-0.1 0.9,0.4 0.7,0.9c-0.9,2.7 -4.7,10.2 -15.2,9.6c-9.1,-1 -10,-7.4 -9.7,-12.3z" fill="#ffffff" fill-rule="evenodd" stroke="#001026" stroke-width="1.2" stroke-linecap="round" stroke-linejoin="round"/><path d="M280.15,181.45445c-4.7,3.8 -11.9,3.9 -11.9,3.9" fill="none" fill-rule="evenodd" stroke="#001026" stroke-width="1.2" stroke-linecap="round" stroke-linejoin="round"/><path d="M278.85,192.65445c-6.3,0.5 -10.2,-1.4 -10.2,-1.4" fill="none" fill-rule="evenodd" stroke="#001026" stroke-width="1.2" stroke-linecap="round" stroke-linejoin="round"/><path d="M244.85,182.65445c2.1,0 4.3,0.2 4.4,0.9c0.1,1.4 -1.4,4.2 -3,4.3c-1.8,0.2 -6,-2.3 -6,-3.9c-0.1,-1.2 2.6,-1.3 4.6,-1.3z" fill="#001026" fill-rule="evenodd" stroke="#001026" stroke-width="1.2" stroke-linecap="round" stroke-linejoin="round"/><path d="M199.85,181.15445c0,0 8.6,2.8 12.1,5.9" fill="none" fill-rule="evenodd" stroke="#001026" stroke-width="1.2" stroke-linecap="round" stroke-linejoin="round"/><path d="M212.25,190.55445c-4.3,1.7 -11.7,0.6 -11.7,0.6" fill="none" fill-rule="evenodd" stroke="#001026" stroke-width="1.2" stroke-linecap="round" stroke-linejoin="round"/><g fill-rule="evenodd"><path d="M256.65,170.95445c2.9,4.5 3,9.6 0.2,11.4c-2.8,1.8 -7.4,-0.3 -10.4,-4.8c-2.9,-4.5 -3,-9.6 -0.2,-11.4c2.8,-1.9 7.5,0.3 10.4,4.8z" fill="#ffffff" stroke="#001026" stroke-width="1.2" stroke-linecap="round" stroke-linejoin="round"/><path d="M256.25,176.65445c0,1.1 -0.8,2 -1.8,2c-1,0 -1.8,-0.9 -1.8,-2c0,-1.1 0.8,-2 1.8,-2c1,0 1.8,0.9 1.8,2" fill="#001026" stroke="none" stroke-width="1" stroke-linecap="butt" stroke-linejoin="miter"/></g><g fill-rule="evenodd"><path d="M231.85,173.75445c3,4.4 2.8,9.8 0.1,11.7c-3.3,1.9 -7.7,0.5 -10.7,-3.9c-3.1,-4.4 -3.3,-10.1 -0.2,-12.3c3.1,-2.3 7.8,0.1 10.8,4.5z" fill="#ffffff" stroke="#001026" stroke-width="1.2" stroke-linecap="round" stroke-linejoin="round"/><path d="M231.25,179.55445c0,1.1 -0.8,2 -1.8,2c-1,0 -1.8,-0.9 -1.8,-2c0,-1.1 0.8,-2 1.8,-2c1,0.1 1.8,0.9 1.8,2" fill="#001026" stroke="none" stroke-width="1" stroke-linecap="butt" stroke-linejoin="miter"/></g><path d="M224.21498,229.55193c-1.21799,0.28108 -1.49907,-0.93691 -1.49907,-0.93691l-0.37736,-1.63519c-1.76606,-7.54069 -2.2165,-15.95738 -2.2165,-23.67502c0,0 0,-1.25 1.25,-1.25c1.25,0 1.25,1.25 1.25,1.25c0,7.52146 0.41387,15.76111 2.15127,23.10763l0.37857,1.64042c0,0 0.28108,1.21799 -0.93691,1.49907z" fill="#d0d0d0" fill-rule="nonzero" stroke="none" stroke-width="0.5" stroke-linecap="butt" stroke-linejoin="miter"/><path d="M230.93768,227.66433l-1.94606,0.30762c-0.72438,-6.3388 -1.68783,-12.4563 -3.08553,-18.68198c0,0 -0.27381,-1.21964 0.94583,-1.49345c1.21964,-0.27381 1.49345,0.94583 1.49345,0.94583c1.37967,6.1456 2.34358,12.19158 3.07141,18.43743c0.06675,0.22101 0.06675,0.39827 0.06675,0.39827l-0.02032,0.00321c0.00409,0.0356 0.00816,0.07121 0.01223,0.10682z" fill="#d0d0d0" fill-rule="nonzero" stroke="none" stroke-width="0.5" stroke-linecap="butt" stroke-linejoin="miter"/><path d="M237.05754,205.30985c1.22859,0.23038 0.99821,1.45897 0.99821,1.45897l-0.10476,0.42035c0.07818,5.7052 1.84708,11.27738 1.84809,17.07125c0,0 0,1.25 -1.25,1.25c-1.25,0 -1.25,-1.25 -1.25,-1.25c0.00104,-5.78405 -1.73436,-11.32333 -1.84773,-17.02886l0.14723,-0.9235c0,0 0.23038,-1.22859 1.45897,-0.99821z" fill="#d0d0d0" fill-rule="nonzero" stroke="none" stroke-width="0.5" stroke-linecap="butt" stroke-linejoin="miter"/><path d="M257.71896,221.48325c-1.17039,0.43895 -1.60935,-0.73144 -1.60935,-0.73144l-0.19545,-0.61593c-0.46459,-3.62357 -0.79103,-7.23517 -1.3399,-10.84802c0,0 -0.18773,-1.23582 1.0481,-1.42355c1.23582,-0.18773 1.42355,1.0481 1.42355,1.0481c0.55167,3.63202 0.88088,7.26303 1.34795,10.90553l0.05654,0.05597c0,0 0.43895,1.17039 -0.73144,1.60935z" fill="#d0d0d0" fill-rule="nonzero" stroke="none" stroke-width="0.5" stroke-linecap="butt" stroke-linejoin="miter"/><path d="M265.20412,231.62565c-0.67526,-10.58324 -1.48857,-21.24604 -1.48857,-31.84844c0,0 0,-1.25 1.25,-1.25c1.25,0 1.25,1.25 1.25,1.25c0,10.90644 0.8622,21.88101 1.55142,32.76153l-1.3707,-0.31324l-1.12433,0.47066c-0.01547,-0.24604 -0.03102,-0.49213 -0.04666,-0.73827l-0.03294,-0.00753c0,0 -0.01441,-0.13695 0.01178,-0.32472z" fill="#d0d0d0" fill-rule="nonzero" stroke="none" stroke-width="0.5" stroke-linecap="butt" stroke-linejoin="miter"/><path d="M245.06034,220.14271c-0.27694,-3.31996 -0.80484,-6.48134 -1.47842,-9.78495c0,0 -0.24972,-1.2248 0.97508,-1.47453c1.2248,-0.24972 1.47453,0.97508 1.47453,0.97508c0.78323,3.84143 1.37378,7.51102 1.61866,11.42647l-1.94813,-0.11547l-0.547,0.2714c-0.00636,-0.10184 -0.01296,-0.20351 -0.0198,-0.305l-0.12846,-0.00761c0,0 -0.17316,-0.51947 0.05356,-0.98539z" fill="#d0d0d0" fill-rule="nonzero" stroke="none" stroke-width="0.5" stroke-linecap="butt" stroke-linejoin="miter"/><path d="M262.36451,199.5464c-1.23904,-0.16519 -1.07385,-1.40423 -1.07385,-1.40423l0.07415,-0.51787c0.1308,-2.9016 -0.4918,-4.93997 -2.00072,-7.39869c0,0 -0.65323,-1.06573 0.4125,-1.71897c1.06573,-0.65323 1.71897,0.4125 1.71897,0.4125c1.76423,2.88168 2.50376,5.41825 2.367,8.81146l-0.09381,0.74195c0,0 -0.16519,1.23904 -1.40423,1.07385z" fill="#d0d0d0" fill-rule="nonzero" stroke="none" stroke-width="0.5" stroke-linecap="butt" stroke-linejoin="miter"/><path d="M226.17628,197.08249c-1.21083,0.31049 -1.52131,-0.90034 -1.52131,-0.90034l-0.43899,-2.17195c1.18339,-1.89672 1.31675,-2.75547 1.76801,-5.01895c0,0 0.24516,-1.22572 1.47088,-0.98057c1.22572,0.24516 0.98057,1.47088 0.98057,1.47088c-0.39147,1.95128 -0.4984,3.454 -1.7598,4.9759l0.40097,1.10372c0,0 0.31049,1.21083 -0.90034,1.52131z" fill="#d0d0d0" fill-rule="nonzero" stroke="none" stroke-width="0.5" stroke-linecap="butt" stroke-linejoin="miter"/><path d="M255.84949,203.01445c-0.20146,0.32305 -0.64176,0.77728 -1.44264,0.51031c-1.18585,-0.39528 -0.79057,-1.58114 -0.79057,-1.58114l0.447,-0.70679c0.98715,-0.77301 2.15644,-1.30728 3.32939,-1.75022c0,0 1.1725,-0.43329 1.60579,0.73921c0.43329,1.1725 -0.73921,1.60579 -0.73921,1.60579c-0.84023,0.30229 -1.69078,0.65427 -2.40975,1.18283z" fill="#d0d0d0" fill-rule="nonzero" stroke="none" stroke-width="0.5" stroke-linecap="butt" stroke-linejoin="miter"/><path d="M252.03279,188.10727c-0.84464,-0.92146 0.07682,-1.7661 0.07682,-1.7661l0.70076,-0.6095c2.18864,-1.30187 3.53297,-1.3904 6.10754,-1.39883c0,0 1.25,0 1.25,1.25c0,1.25 -1.25,1.25 -1.25,1.25c-2.19185,-0.00808 -3.02068,-0.07433 -4.81186,1.03687l-0.30717,0.31439c0,0 -0.92146,0.84464 -1.7661,-0.07682z" fill="#d0d0d0" fill-rule="nonzero" stroke="none" stroke-width="0.5" stroke-linecap="butt" stroke-linejoin="miter"/><path d="M251.8807,220.00139c-1.25,0 -1.25,-1.25 -1.25,-1.25v-0.42001c0.00002,-3.96172 -1.10749,-7.63612 -2.06271,-11.45702c0,0 -0.30317,-1.21268 0.90951,-1.51585c1.21268,-0.30317 1.51585,0.90951 1.51585,0.90951c1.00596,4.02382 2.13733,7.88796 2.13736,12.06336v0.42001c0,0 0,1.25 -1.25,1.25z" fill="#d0d0d0" fill-rule="nonzero" stroke="none" stroke-width="0.5" stroke-linecap="butt" stroke-linejoin="miter"/><path d="M262.09987,235.82968c-1.11803,0.55902 -1.67705,-0.55902 -1.67705,-0.55902l-0.55197,-1.39903c0.07446,-2.16632 -1.75365,-5.47812 -2.45589,-7.58484c0,0 -0.39528,-1.18585 0.79057,-1.58114c1.18585,-0.39528 1.58114,0.79057 1.58114,0.79057c0.86272,2.58816 2.52631,5.69772 2.58419,8.37541l0.28804,0.281c0,0 0.55902,1.11803 -0.55902,1.67705z" fill="#d0d0d0" fill-rule="nonzero" stroke="none" stroke-width="0.5" stroke-linecap="butt" stroke-linejoin="miter"/><path d="M230.08422,204.09503c-0.88388,0.88388 -1.76777,0 -1.76777,0l-0.57619,-0.61051c-1.2418,-1.94217 -3.18738,-3.40938 -5.1134,-4.69339c0,0 -0.34947,-0.23298 -0.50821,-0.63142c-0.01937,0.00089 -0.03885,0.00134 -0.05843,0.00134c-0.69036,0 -1.25,-0.55964 -1.25,-1.25c0,-0.69036 0.55964,-1.25 1.25,-1.25c0.54064,0 1.00112,0.34323 1.17542,0.82368c0.42869,-0.00659 0.77798,0.22627 0.77798,0.22627c2.24257,1.49505 4.28781,3.17505 5.80677,5.38677l0.26383,0.2295c0,0 0.88388,0.88388 0,1.76777z" fill="#d0d0d0" fill-rule="nonzero" stroke="none" stroke-width="0.5" stroke-linecap="butt" stroke-linejoin="miter"/></g></g></svg>